<svg width="87" height="129" viewBox="0 0 87 129" fill="none" xmlns="http://www.w3.org/2000/svg">
<path d="M58.2991 59.9467C60.6691 56.6283 61.7028 52.8769 61.2768 49.1371C60.8803 45.653 59.2324 42.3154 56.5128 39.4669C56.5544 39.7475 56.5866 40.0281 56.6095 40.3086M58.2991 59.9467L57.918 59.6231C57.9134 59.6284 57.9089 59.6338 57.9043 59.6391M58.2991 59.9467C54.928 63.9167 50.4023 67.2803 45.0516 69.793M58.2991 59.9467L57.8922 59.6561C57.8963 59.6504 57.9003 59.6448 57.9043 59.6391M57.9043 59.6391C60.2004 56.4165 61.1901 52.7935 60.78 49.1936C60.42 46.0301 58.989 42.9747 56.6095 40.3086M57.9043 59.6391C54.5892 63.5378 50.1329 66.8526 44.8505 69.3351M56.6095 40.3086C56.9315 44.2514 55.4154 48.1561 52.3225 51.3549L52.3143 51.3634L52.3142 51.3633C46.79 56.8133 39.99 61.4764 32.2431 65.133M56.6095 40.3086C56.4255 40.1024 56.2357 39.8985 56.0404 39.6971C56.5815 43.6988 55.1407 47.7209 51.963 51.0074C46.4828 56.414 39.7305 61.0461 32.0289 64.6812C26.1827 67.4616 21.3935 71.3005 18.1157 75.834M32.2431 65.133C26.463 67.882 21.7455 71.6689 18.5243 76.1222M32.2431 65.133C32.2429 65.1331 32.2426 65.1332 32.2423 65.1334L32.0291 64.6817L32.2436 65.1328C32.2435 65.1328 32.2433 65.1329 32.2431 65.133ZM18.1157 75.834C15.255 79.9911 14.6833 84.8064 16.5208 89.2685C18.3583 93.7307 22.4621 97.4927 27.9701 99.7647C30.8007 100.946 33.9886 101.567 37.2267 101.575C36.883 101.397 36.5361 101.223 36.186 101.051M18.1157 75.834L18.5209 76.1269C18.5221 76.1254 18.5232 76.1238 18.5243 76.1222M18.1157 75.834L18.5276 76.1174C18.5265 76.119 18.5254 76.1206 18.5243 76.1222M36.186 101.051C36.5722 101.068 36.9597 101.076 37.3479 101.075C36.6794 100.731 35.9991 100.398 35.3073 100.076C30.8705 97.6673 27.8827 94.071 26.9822 90.0556C26.0817 86.0401 27.3399 81.9233 30.4877 78.5844C34.5896 75.0314 39.5229 72.0534 45.0516 69.793M36.186 101.051C35.826 100.874 35.4626 100.7 35.0959 100.529L35.0821 100.522L35.0687 100.515C30.5364 98.0549 27.4334 94.3526 26.4943 90.165C25.5528 85.9667 26.8776 81.6848 30.1239 78.2414L30.1412 78.223L30.1603 78.2064C34.3043 74.617 39.2813 71.6134 44.8505 69.3351M36.186 101.051C33.3717 100.927 30.6261 100.331 28.1627 99.3033L28.1608 99.3025C22.7452 97.0686 18.7585 93.3895 16.9831 89.0781C15.2142 84.7824 15.757 80.1466 18.5243 76.1222M45.0516 69.793L44.839 69.3404C44.8428 69.3386 44.8467 69.3368 44.8505 69.3351M45.0516 69.793L44.8624 69.3302C44.8584 69.3318 44.8544 69.3334 44.8505 69.3351M9.51333 83.9929L9.51366 83.9994C9.66063 86.8584 10.5401 89.6545 12.0851 92.2419C7.94104 89.0826 4.99572 85.1777 3.54584 80.9225C1.84954 75.9443 2.27242 70.7011 4.76661 65.8979C8.02072 60.2094 12.5269 54.9497 18.109 50.3342L18.1091 50.3343L18.1178 50.3267C25.3332 44.0749 31.3389 37.1045 35.958 29.6157L35.972 29.5931L35.9835 29.569C37.2985 26.8208 38.1939 23.9693 38.6511 21.0682C38.9775 19.6549 39.1256 18.1888 39.2679 16.7811C39.2893 16.5691 39.3106 16.3583 39.3324 16.1492C43.8036 21.5711 46.8764 27.5499 48.4032 33.7835C49.1877 37.2737 48.807 40.8541 47.2876 44.2193C45.7662 47.5884 43.1447 50.6486 39.6335 53.1233C34.9766 56.4051 29.9776 59.4126 24.6821 62.1174C19.8964 64.4982 15.9853 67.7444 13.3264 71.5663L13.7308 71.8476L13.3264 71.5663C10.6656 75.3913 9.34745 79.6671 9.51333 83.9929ZM76.9017 67.9856C76.9378 67.9699 76.974 67.9545 77.0105 67.9395C76.9174 68.0085 76.8312 68.082 76.752 68.1611C76.3699 68.5423 76.1979 69.002 76.1256 69.5503C76.0561 70.077 76.0735 70.7324 76.1017 71.5355L76.1024 71.5463C76.3289 75.5221 75.4386 79.4946 73.4802 83.2159C71.5213 86.9381 68.5333 90.3318 64.6944 93.1765C61.9617 95.1607 58.7005 96.7145 55.1094 97.7367L55.1094 97.7366L55.0994 97.7396C51.6137 98.8112 47.722 98.9376 44.1199 98.0939C40.5269 97.2521 37.4801 95.5072 35.4957 93.1949C33.8125 90.6859 33.3901 87.8404 34.2778 85.144C35.1714 82.4295 37.3506 79.9982 40.4792 78.3098L40.4884 78.3048L40.4973 78.2995C43.3402 76.6086 46.3955 75.1207 49.623 73.8565L49.6339 73.8522L49.6445 73.8475C53.4488 72.1482 56.936 70.0825 60.0152 67.7028C60.1506 67.6222 60.2764 67.5214 60.374 67.4432L60.379 67.4393L60.3792 67.4391C60.4981 67.3438 60.5896 67.2705 60.682 67.2133C60.7712 67.158 60.8337 67.136 60.8797 67.1297C60.9169 67.1247 60.9667 67.1261 61.0447 67.1648L61.0518 67.1684L61.0591 67.1717C61.106 67.1931 61.1389 67.2117 61.1615 67.2263C61.1304 67.2853 61.0776 67.3598 60.9962 67.4653C60.9869 67.4773 60.9769 67.4902 60.9663 67.5038C60.893 67.598 60.7917 67.7281 60.722 67.8542C59.3102 70.246 57.235 72.4068 54.6174 74.1934C52.6471 75.4887 51.0067 77.0472 49.7852 78.796C49.2522 79.5187 48.9828 80.352 49.028 81.2049C49.0734 82.0595 49.431 82.8713 50.0364 83.5558C50.6397 84.2382 51.4681 84.7719 52.4213 85.1142L52.4213 85.1143C53.3732 85.456 54.4263 85.5989 55.471 85.5318C57.7708 85.4533 60.0262 85.0205 62.0938 84.2589C64.1581 83.4985 65.9951 82.4246 67.4837 81.0998C71.272 78.1104 73.7561 74.3118 74.5619 70.2039C74.9065 69.3081 75.7235 68.4999 76.9017 67.9856Z" stroke="black"/>
<path d="M4.75 50.5625C2.375 49.625 0.8125 48.4062 0.0625 46.9062C1.84375 43.5312 3.03125 41.2656 3.625 40.1094C4.25 38.9531 4.95312 37.1875 5.73438 34.8125C6.54688 32.4062 7.10938 29.9844 7.42188 27.5469H39.9062H78.9531C79.7344 33.6719 82.1719 40.125 86.2656 46.9062C85.5469 48.4062 83.875 49.625 81.25 50.5625C78.6875 45.9062 74.9062 42.0312 69.9062 38.9375C64.9375 35.8125 58.4844 34.25 50.5469 34.25C50.2969 42 50.1719 51.1875 50.1719 61.8125C50.1719 75.375 50.3281 85.2656 50.6406 91.4844C50.7031 92.6406 54.1875 93.5625 61.0938 94.25C61.625 96.25 61.5625 98.2656 60.9062 100.297C50.7812 100.047 44.8906 99.9219 43.2344 99.9219C40.7344 99.9219 33.7344 100.047 22.2344 100.297C21.4531 98.1406 21.4531 96.125 22.2344 94.25C29.0156 93.5625 32.4375 92.6719 32.5 91.5781C32.8125 83.7031 32.9688 73.7812 32.9688 61.8125C32.9688 51.8125 32.8438 42.7188 32.5938 34.5312C19.5938 36.2188 10.3125 41.5625 4.75 50.5625ZM18.0156 32.6094L34.4219 32.1406C34.7344 42.5156 34.8906 52.4062 34.8906 61.8125C34.8906 73.9062 34.7344 83.8281 34.4219 91.5781C34.3594 93.8906 30.7344 95.3906 23.5469 96.0781C23.2969 96.5781 23.2969 97.3125 23.5469 98.2812C28.8594 98.0938 34.3125 98 39.9062 98C46.5625 98 52.9531 98.0938 59.0781 98.2812C59.3281 97.7188 59.3281 96.9844 59.0781 96.0781C48.7031 95.4531 43.4844 93.9531 43.4219 91.5781C43.1094 81.2031 42.9531 71.2812 42.9531 61.8125C42.9531 49.7812 43.1094 39.8906 43.4219 32.1406L50.6406 32.3281C66.2031 32.7031 76.7031 37.9844 82.1406 48.1719C82.9531 47.8594 83.4844 47.4375 83.7344 46.9062C80.6094 40.5312 77.1094 36.0312 73.2344 33.4062C69.3594 30.7812 63.5938 29.4688 55.9375 29.4688H39.9062C36.5 29.4688 31.3594 29.4531 24.4844 29.4219C17.6094 29.3906 12.5 29.375 9.15625 29.375C9.03125 30.4375 8.8125 31.5469 8.5 32.7031C8.1875 33.8594 7.89062 34.8438 7.60938 35.6562C7.35938 36.4375 6.92188 37.4844 6.29688 38.7969C5.70312 40.1094 5.29688 41 5.07812 41.4688C4.85938 41.9062 4.35938 42.875 3.57812 44.375C2.82812 45.875 2.39062 46.7188 2.26562 46.9062C2.51562 47.4375 3.0625 47.8594 3.90625 48.1719C6.125 44.5156 7.84375 41.8125 9.0625 40.0625C10.2812 38.3125 11.7188 36.6406 13.375 35.0469C15.0625 33.4219 16.6094 32.6094 18.0156 32.6094Z" fill="#0000FF"/>
</svg>
